<svg width="758" height="803" viewBox="0 0 758 803" fill="none" xmlns="http://www.w3.org/2000/svg">
<path d="M119.303 76.4293C225.455 76.4293 331.608 76.4293 437.76 76.4293C458.889 76.4293 480.019 76.4293 501.149 76.4293C504.182 76.4293 509.859 75.5445 512.617 77.6895C519.054 82.6968 499.999 102.014 497.494 105.54C496.691 106.671 486.777 120.794 491.067 121.293C502.377 122.608 516.979 115.23 526.857 111.211C550.474 101.604 573.398 90.0777 595.665 77.6895C601.717 74.3224 702.908 12.7985 697.238 6.6134C689.967 -1.31848 664.499 1.17437 655.903 2.45469C620.165 7.77744 579.5 36.4615 567.184 71.5145C554.325 108.112 601.275 121.079 626.036 134.273C647.155 145.527 667.902 157.436 689.425 167.921C703.393 174.726 718.783 180.139 731.894 188.588C748.212 199.104 738.008 215.97 728.995 228.537C702.921 264.895 671.534 297.779 646.703 335.026C634.371 353.524 668.16 346.121 679.343 346.493C701.531 347.233 706.674 359.277 700.389 381.275C694.375 402.322 681.225 421.15 669.261 439.119C645.602 474.657 620.17 508.983 597.177 544.977C589.304 557.302 566.959 587.213 591.884 594.882C619.085 603.251 651.199 604.573 679.343 604.964C696.793 605.206 741.522 599.724 753.948 616.81C762.312 628.311 751.71 640.709 743.362 647.937C695.979 688.963 640.771 720.859 590.876 758.71C574.883 770.842 559.551 783.891 543.366 795.76C542.551 796.358 535.345 802.725 533.284 801.809C529.628 800.184 525.007 791.993 521.942 789.459C507.959 777.896 491.304 769.047 475.692 759.97C390.049 710.177 298.122 690.621 199.705 688.894C195.226 688.815 194.614 688.574 194.16 684.105C192.747 670.178 188.414 657.186 178.785 646.551C159.196 624.913 127.141 619.894 101.156 609.5C81.9639 601.823 64.3284 588.343 56.2926 568.669C52.8147 560.155 52.3066 553.027 41.6741 552.791C34.4846 552.631 4.59037 557.009 1.34717 550.522" stroke="#EAE9E9" stroke-width="2" stroke-linecap="round"/>
</svg>
