<svg width="1108" height="837" viewBox="0 0 1108 837" fill="none" xmlns="http://www.w3.org/2000/svg">
<path d="M1107 564.184C1091.15 566.903 1078.74 572.86 1064.57 581.193C1021.39 606.587 981.288 638.542 941.744 669.514C901.057 701.38 861.315 734.437 821.942 768.04C800.768 786.111 777.588 803.76 758.355 824.232C749.152 834.027 778.917 807.131 789.06 798.404C821.878 770.167 854.795 742.06 887.344 713.485C889.787 711.34 967.645 646.647 966.285 644.567C965.745 643.743 964.457 643.911 963.504 643.811C957.92 643.229 944.199 643.82 941.019 643.937C880.086 646.179 819.79 654.692 759.805 665.86C598.911 695.814 439.532 736.601 280.357 775.095C253.54 781.581 226.781 788.401 199.724 793.742C193.558 794.959 184.034 791.546 181.228 797.396C178.884 802.282 191.703 797.792 196.943 797.9C221.039 798.397 244.877 802.063 268.994 802.31C274.546 802.366 286.863 802.742 273.104 807.223C220.16 824.467 160.715 828.75 105.793 833.052C83.318 834.812 60.6488 836.295 38.0944 835.95C29.0965 835.812 8.779 837.588 3.51999 826.626C-11.1702 796.006 42.4994 748.761 57.9203 733.518C110.824 681.225 169.067 635.146 224.385 585.729C235.035 576.215 259.847 559.753 231.518 562.42C182.013 567.083 134.771 592.775 87.1756 606.392C73.5965 610.277 54.5453 617.526 40.0286 615.463C28.3857 613.808 41.0404 590.56 42.8091 586.989C54.4145 563.554 70.2893 542.599 85.7249 521.851C112.782 485.482 140.609 449.703 168.172 413.75C182.451 395.124 197.053 376.709 210.846 357.683C214.484 352.665 222.515 343.575 224.023 336.768C224.427 334.942 182.302 335.13 178.326 335.13C163.712 335.13 146.507 339.768 155.357 318.877C162.054 303.07 240.232 201.593 259.201 244.794C269.629 268.541 267.059 298.162 267.059 323.539C267.059 336.985 263.356 376.29 268.268 363.857C271.657 355.279 270.692 340.276 270.928 331.855C271.789 301.124 272.117 270.026 269.477 239.376C263.152 165.947 243.258 100.384 189.811 49.632C167.168 28.1315 139.66 10.3787 109.661 2.76294C96.8725 -0.483713 121.13 1.65599 124.41 2.13298C155.452 6.6473 143.935 62.1823 143.147 83.524C142.395 103.901 151.464 111.41 167.688 120.944C174.867 125.162 180.161 127.082 182.195 135.559" stroke="#EAE9E9" stroke-width="2" stroke-linecap="round"/>
</svg>
