<svg width="364" height="814" viewBox="0 0 364 814" fill="none" xmlns="http://www.w3.org/2000/svg">
<path d="M59.5321 133.395C40.0176 133.395 -4.73647 124.006 1.61102 177.132C4.67721 202.794 33.7428 208.333 46.1479 209.404C53.1086 210.006 62.1453 211.668 68.9164 208.158C81.5116 201.629 86.5712 174.508 89.9926 156.572C96.6184 121.837 101.069 86.8118 101.069 50.4078C101.069 32.8 115.03 36.8929 123.684 37.3243C135.52 37.9142 142.606 45.869 142.606 64.9867C142.606 76.1935 136.888 79.6248 145.991 81.31C158.589 83.6424 169.097 80.3521 180.759 73.3352C193.749 65.5191 198.963 79.2283 206.296 95.2658C216.657 117.924 224.418 131.07 241.449 138.878C273.47 153.558 272.594 203.185 272.755 249.278C272.854 277.486 271.001 307.31 273.14 335.381C274.071 347.602 278.355 358.832 284.755 365.66C301.438 383.457 329.258 376.413 343.522 356.439C349.777 347.68 355.648 332.951 353.83 318.808C351.251 298.758 332.024 286.194 322.292 278.311C304.215 263.669 284.786 252.751 264.448 251.023C237.056 248.695 217.226 266.824 201.219 302.36C178.077 353.739 166.314 414.179 147.068 468.833C143.354 479.378 138.699 489.567 131.837 495.125C125.455 500.295 118.69 485.349 115.376 478.926C89.2928 428.361 78.2322 375.44 77.7622 309.587C77.5849 284.735 76.8838 257.136 83.0697 233.827C88.2543 214.291 78.1199 225.127 72.147 232.83C40.6667 273.432 24.8856 333.986 22.7641 397.808C21.3642 439.923 21.7123 482.734 23.6872 524.781C24.5218 542.551 25.6178 560.461 27.687 577.988C28.2439 582.704 28.9158 592.208 31.4561 595.931C33.2889 598.617 36.205 598.415 38.379 598.672C52.1457 600.298 66.0498 599.863 79.8391 599.918C94.6332 599.977 109.428 599.918 124.222 599.918C128.047 599.918 134.145 598.285 136.76 604.404C140.396 612.911 138.719 631.157 136.914 640.041C131.812 665.154 121.302 686.617 115.992 711.565C113.773 721.987 126.561 721.847 129.991 722.281C157.384 725.741 185.35 723.278 212.834 723.278C228.532 723.278 238.667 717.468 251.91 701.721C273.997 675.458 293.717 634.982 282.755 587.707C276.669 561.459 262.616 539.549 251.679 518.551C239.355 494.889 227.525 469.804 212.911 449.644C197.421 428.274 180.309 414.746 173.297 456.248C170.722 471.492 167.31 496.261 172.451 511.199C177.773 526.661 189.556 532.373 199.604 534.251C236.016 541.057 262.558 471.575 271.217 422.48C279.123 377.657 268.777 346.141 251.218 312.079C240.425 291.144 224.33 240.556 203.912 243.92C189.637 246.272 178.422 267.289 169.374 283.171C154.258 309.707 140.366 337.841 124.914 363.915C106.827 394.436 88.7244 423.13 82.7621 465.843C75.3993 518.587 77.5315 573.657 77.5315 627.331C77.5315 644.4 78.1998 661.952 76.7623 678.918C75.8173 690.071 73.1537 700.572 72.0701 711.689C71.6066 716.445 71.1207 731.678 66.378 729.757C62.3098 728.11 58.5223 720.6 55.3784 716.549C48.0973 707.167 40.4609 698.452 32.9176 689.634C31.6677 688.173 10.7968 665.142 16.4567 680.912C23.4994 700.535 37.7786 714.839 49.2248 726.891C61.2216 739.523 74.8334 753.305 88.9157 758.541C102.985 763.772 113.166 758.272 125.991 750.192C132.712 745.959 144.377 740.737 149.837 751.189C158.972 768.679 165.358 785.368 178.605 796.296C199.86 813.831 222.294 812.994 245.526 812.994C254.992 812.994 264.309 808.508 273.448 808.508C277.685 808.508 283.327 797.934 285.986 794.303C305.499 767.655 324.166 739.625 342.753 711.315C346.289 705.93 367.496 684.769 362.137 673.435C346.819 641.04 339.888 606.644 338.599 565.776C336.41 496.361 337.83 426.468 337.83 356.937C337.83 341.275 337.457 325.413 338.676 309.837C339.516 299.109 341.891 288.811 341.984 277.938C342.068 268.154 339.462 262.524 336.061 254.636C327.697 235.237 321.591 214.387 315.677 192.832C312.05 179.614 307.527 146.185 297.755 140.248C287.746 134.169 291.813 84.2943 293.062 71.84C294.298 59.5202 296.749 47.3984 300.293 36.3274C302.339 29.9365 300.377 30.2217 296.447 30.2217C290.407 30.2217 282.606 29.6652 277.217 34.8321C267.521 44.1278 261.512 60.9116 252.295 71.0924C245.462 78.6395 235.581 64.583 230.295 59.2548C198.996 27.7066 163.866 12.1159 127.53 4.05458C109.779 0.116607 57.8251 -11.7591 48.7632 24.2407C45.701 36.4061 46.2994 51.7895 44.9172 64.6129C43.5219 77.5581 41.2097 90.4446 38.1482 102.618C34.9856 115.193 25.0966 112.522 20.7642 101.995" stroke="#EAE9E9" stroke-linecap="round"/>
</svg>
