<svg width="758" height="803" viewBox="0 0 758 803" fill="none" xmlns="http://www.w3.org/2000/svg">
<path d="M119.304 76.4293C225.456 76.4293 331.608 76.4293 437.76 76.4293C458.89 76.4293 480.019 76.4293 501.149 76.4293C504.182 76.4293 509.859 75.5445 512.617 77.6895C519.055 82.6968 500 102.014 497.494 105.54C496.691 106.671 486.777 120.794 491.067 121.293C502.378 122.608 516.979 115.23 526.857 111.211C550.474 101.604 573.399 90.0777 595.665 77.6895C601.717 74.3224 702.908 12.7985 697.239 6.6134C689.968 -1.31848 664.5 1.17437 655.903 2.45469C620.165 7.77744 579.5 36.4615 567.184 71.5145C554.326 108.112 601.275 121.079 626.036 134.273C647.156 145.527 667.903 157.436 689.425 167.921C703.393 174.726 718.784 180.139 731.894 188.588C748.212 199.104 738.009 215.97 728.996 228.537C702.921 264.895 671.535 297.779 646.704 335.026C634.372 353.524 668.16 346.121 679.344 346.493C701.532 347.233 706.674 359.277 700.389 381.275C694.376 402.322 681.225 421.15 669.262 439.119C645.602 474.657 620.171 508.983 597.177 544.977C589.304 557.302 566.959 587.213 591.885 594.882C619.086 603.251 651.199 604.573 679.344 604.964C696.794 605.206 741.523 599.724 753.948 616.81C762.313 628.311 751.711 640.709 743.362 647.937C695.98 688.963 640.771 720.859 590.876 758.71C574.884 770.842 559.551 783.891 543.366 795.76C542.551 796.358 535.346 802.725 533.285 801.809C529.628 800.184 525.007 791.993 521.943 789.459C507.96 777.896 491.304 769.047 475.693 759.97C390.049 710.177 298.122 690.621 199.706 688.894C195.227 688.815 194.614 688.574 194.161 684.105C192.748 670.178 188.414 657.186 178.786 646.551C159.197 624.913 127.141 619.894 101.157 609.5C81.9644 601.823 64.3289 588.343 56.293 568.669C52.8152 560.155 52.307 553.027 41.6745 552.791C34.4851 552.631 4.59086 557.009 1.34766 550.522" stroke="#EAE9E9" stroke-width="2" stroke-linecap="round"/>
</svg>
