<svg width="1297" height="864" viewBox="0 0 1297 864" fill="none" xmlns="http://www.w3.org/2000/svg">
<path d="M115.188 265.702C115.188 286.901 113.889 306.59 134.454 320.147C148.365 329.318 163.732 332.972 180.396 333.877C213.911 335.697 251.033 335.874 281.048 319.555C288.342 315.589 330.003 292.758 328.225 281.681C327.467 276.957 316.444 272.877 313.405 271.383C285.208 257.526 255.596 247.44 224.856 240.137C198.191 233.801 171.324 228.988 143.84 227.828C126.227 227.084 104.403 224.505 87.0301 228.774C62.606 234.776 72.9039 293.551 74.4331 309.14C75.1432 316.377 92.8408 373.421 84.8071 377.669C61.7384 389.867 57.5718 322.221 58.0077 314.703C61.5304 253.933 137.007 232.231 188.67 221.081C245.707 208.772 303.063 211.171 360.952 210.311C375.624 210.093 390.524 206.271 394.297 190.663C400.736 164.032 378.393 147.93 359.717 132.549C351.398 125.697 328.033 113.563 326.496 101.776C324.658 87.6876 409.82 91.1711 418.503 91.9522C450.979 94.8736 484.941 113.766 487.539 146.634C489.798 175.207 488.739 193.094 521.749 204.393C579.368 224.114 641.888 227.404 700.823 242.267C709.841 244.542 715.573 251.66 723.794 253.63C729.633 255.029 742.511 255.019 747.259 255.05C773.351 255.22 799.659 255.09 825.681 253.156C861.286 250.51 895.72 243.875 929.174 231.852C944.242 226.437 962.881 220.446 975.363 210.192C1001.98 188.329 961.406 153.837 945.353 140.242C927.059 124.751 904.437 116.496 880.886 111.363C871.237 109.26 853.807 105.119 843.589 108.996C835.654 112.006 851.498 119.429 851.987 119.648C880.293 132.331 912.082 139.801 942.265 146.989C971.581 153.97 1023.47 156.015 1034.03 190.19C1043.25 220.039 1039.82 254.965 1039.95 285.586C1040.09 317.762 1035.04 351.954 1052.55 380.983C1062.11 396.824 1067.57 398.688 1073.92 417.674C1082.87 444.467 1083.41 468.087 1083.8 496.383C1084.22 527.167 1082.24 558.077 1077.99 588.584C1077.09 595.085 1084.31 591.941 1088.12 590.004C1109.86 578.936 1124.36 557.344 1130.11 534.849C1143.66 481.809 1123.25 438.102 1074.78 409.389C975.862 350.795 845.03 381.229 751.211 433.298C668.214 479.361 597.786 546.02 510.14 584.678C468.893 602.871 422.04 605.17 379.477 590.004C370.937 586.961 347.088 583.412 355.395 570.357C379.84 531.935 427.559 502.392 440.98 457.68C444.017 447.563 445.037 438.114 432.335 435.665C407.217 430.822 379.474 431.716 355.024 438.979C272.135 463.601 203.991 526.799 142.852 583.139C134.801 590.559 125.606 602.029 124.45 584.678C122.972 562.476 124.814 540.371 118.523 518.634C106.116 475.766 76.1519 451.631 30.2203 451.051C26.5345 451.005 -12.2974 452.086 5.76734 463.834C21.2889 473.928 42.8346 477.788 60.1072 484.192C83.7528 492.959 107.243 503.292 121.857 524.197C134.503 542.286 134.787 562.847 135.071 583.85C135.483 614.216 134.448 644.629 135.195 674.986C136.019 708.455 160.306 718.781 184.348 738.307C200.248 751.221 207.899 769.07 220.904 784.112C233.038 798.147 257.478 798.151 274.75 798.315C280.758 798.372 286.771 798.315 292.78 798.315C297.576 798.315 283.02 797.474 278.702 795.474C245.632 780.165 233.86 724.379 255.854 697.237C287.448 658.248 353.481 671.841 379.23 708.718C404.729 745.236 395.064 790.473 397.508 831.692C398.048 840.796 405.482 842.942 414.057 844.711C462.186 854.643 514.153 854.758 563.121 857.613C598.533 859.677 633.809 860.461 669.207 857.731C685.816 856.45 702.741 852.074 719.348 851.576C723.203 851.461 714.302 859.495 713.667 861.755C712.301 866.617 834.297 855.76 842.601 854.417C892.37 846.364 959.574 837.296 999.569 804.588C1014.28 792.558 1017.1 774.332 1019.45 756.89C1024.55 719.174 1004 689.004 980.179 660.072C941.166 612.695 869.07 592.671 808.021 596.869C802.371 597.258 787.927 597.405 783.074 602.314C775.983 609.487 803.189 606.963 813.455 607.876C848.821 611.024 884.209 614.579 919.294 619.949C966.015 627.099 1017.71 635.963 1059.47 658.652C1095.75 678.366 1113.11 724.964 1104.17 763.518C1102.31 771.55 1099.9 779.373 1096.89 787.071C1095.23 791.302 1105.99 784.147 1109.73 781.39C1132.41 764.651 1151.15 743.431 1168.76 721.974C1223.56 655.235 1261.05 581.996 1279.54 498.632C1292.7 439.286 1300.78 375.981 1292.88 315.413C1287.63 275.119 1280.45 227.411 1254.6 193.74C1239.49 174.065 1218.03 153.695 1195.81 141.426C1180.55 133 1163.7 129.955 1147.52 124.027C1126.67 116.388 1177.61 74.172 1181.98 69.7008C1202.35 48.8254 1261.77 -15.2202 1240.52 4.84039C1215.46 28.4978 1195.15 58.3021 1174.57 85.3241C1109.03 171.345 1045.97 259.425 989.812 351.394C951.651 413.89 914.961 478.067 891.013 546.922" stroke="#EAE9E9" stroke-width="2" stroke-linecap="round"/>
</svg>
