<svg width="346" height="292" viewBox="0 0 346 292" fill="none" xmlns="http://www.w3.org/2000/svg">
<path d="M41.5321 135.395C22.0176 135.395 -22.7365 126.006 -16.389 179.132C-13.3228 204.794 15.7428 210.333 28.1479 211.404C35.1086 212.006 44.1453 213.668 50.9164 210.158C63.5116 203.629 68.5712 176.508 71.9926 158.572C78.6184 123.837 83.0691 88.8118 83.0691 52.4078C83.0691 34.8 97.0298 38.8929 105.684 39.3243C117.52 39.9142 124.606 47.869 124.606 66.9867C124.606 78.1935 118.888 81.6248 127.991 83.31C140.589 85.6424 151.097 82.3521 162.759 75.3352C175.749 67.5191 180.963 81.2283 188.296 97.2658C198.657 119.924 206.418 133.07 223.449 140.878C255.47 155.558 254.594 205.185 254.755 251.278C254.854 279.486 253.001 309.31 255.14 337.381C256.071 349.602 260.355 360.832 266.755 367.66C283.438 385.457 311.258 378.413 325.522 358.439C331.777 349.68 337.648 334.951 335.83 320.808C333.251 300.758 314.024 288.194 304.292 280.311C286.215 265.669 266.786 254.751 246.448 253.023C219.056 250.695 199.226 268.824 183.219 304.36C160.077 355.739 148.314 416.179 129.068 470.833C125.354 481.378 120.699 491.567 113.837 497.125C107.455 502.295 100.69 487.349 97.3763 480.926C71.2928 430.361 60.2322 377.44 59.7622 311.587C59.5849 286.735 58.8838 259.136 65.0697 235.827C70.2543 216.291 60.1199 227.127 54.147 234.83C22.6667 275.432 6.88557 335.986 4.76414 399.808C3.36423 441.923 3.71228 484.734 5.68718 526.781C6.52185 544.551 7.61781 562.461 9.68704 579.988C10.2439 584.704 10.9158 594.208 13.4561 597.931C15.2889 600.617 18.205 600.415 20.379 600.672C34.1457 602.298 48.0498 601.863 61.8391 601.918C76.6332 601.977 91.4279 601.918 106.222 601.918C110.047 601.918 116.145 600.285 118.76 606.404C122.396 614.911 120.719 633.157 118.914 642.041C113.812 667.154 103.302 688.617 97.9917 713.565C95.7731 723.987 108.561 723.847 111.991 724.281C139.384 727.741 167.35 725.278 194.834 725.278C210.532 725.278 220.667 719.468 233.91 703.721C255.997 677.458 275.717 636.982 264.755 589.707C258.669 563.459 244.616 541.549 233.679 520.551C221.355 496.889 209.525 471.804 194.911 451.644C179.421 430.274 162.309 416.746 155.297 458.248C152.722 473.492 149.31 498.261 154.451 513.199C159.773 528.661 171.556 534.373 181.604 536.251C218.016 543.057 244.558 473.575 253.217 424.48C261.123 379.657 250.777 348.141 233.218 314.079C222.425 293.144 206.33 242.556 185.912 245.92C171.637 248.272 160.422 269.289 151.374 285.171C136.258 311.707 122.366 339.841 106.914 365.915C88.8275 396.436 70.7244 425.13 64.7621 467.843C57.3993 520.587 59.5315 575.657 59.5315 629.331C59.5315 646.4 60.1998 663.952 58.7623 680.918C57.8173 692.071 55.1537 702.572 54.0701 713.689C53.6066 718.445 53.1207 733.678 48.378 731.757C44.3098 730.11 40.5223 722.6 37.3784 718.549C30.0973 709.167 22.4609 700.452 14.9176 691.634C13.6677 690.173 -7.20324 667.142 -1.54334 682.912C5.49937 702.535 19.7786 716.839 31.2248 728.891C43.2216 741.523 56.8334 755.305 70.9157 760.541C84.9849 765.772 95.1657 760.272 107.991 752.192C114.712 747.959 126.377 742.737 131.837 753.189C140.972 770.679 147.358 787.368 160.605 798.296C181.86 815.831 204.294 814.994 227.526 814.994C236.992 814.994 246.309 810.508 255.448 810.508C259.685 810.508 265.327 799.934 267.986 796.303C287.499 769.655 306.166 741.625 324.753 713.315C328.289 707.93 349.496 686.769 344.137 675.435C328.819 643.04 321.888 608.644 320.599 567.776C318.41 498.361 319.83 428.468 319.83 358.937C319.83 343.275 319.457 327.413 320.676 311.837C321.516 301.109 323.891 290.811 323.984 279.938C324.068 270.154 321.462 264.524 318.061 256.636C309.697 237.237 303.591 216.387 297.677 194.832C294.05 181.614 289.527 148.185 279.755 142.248C269.746 136.169 273.813 86.2943 275.062 73.84C276.298 61.5202 278.749 49.3984 282.293 38.3274C284.339 31.9365 282.377 32.2217 278.447 32.2217C272.407 32.2217 264.606 31.6652 259.217 36.8321C249.521 46.1278 243.512 62.9116 234.295 73.0924C227.462 80.6395 217.581 66.583 212.295 61.2548C180.996 29.7066 145.866 14.1159 109.53 6.05458C91.7791 2.11661 39.8251 -9.75907 30.7632 26.2407C27.701 38.4061 28.2994 53.7895 26.9172 66.6129C25.5219 79.5581 23.2097 92.4446 20.1482 104.618C16.9856 117.193 7.09664 114.522 2.7642 103.995" stroke="#EAE9E9" stroke-linecap="round"/>
</svg>
